<svg width="32" height="32" viewBox="0 0 32 32" fill="none" xmlns="http://www.w3.org/2000/svg">
<path fill-rule="evenodd" clip-rule="evenodd" d="M16.6641 0.542272C16.297 0.1752 15.7032 0.1752 15.3361 0.542272L8.88664 6.99174H1.20597C1.08176 6.99174 0.960085 7.01748 0.847966 7.06344L0.847458 7.06364C0.617032 7.15864 0.433745 7.34192 0.338753 7.57235L0.338544 7.57286C0.292594 7.68498 0.266846 7.80665 0.266846 7.93086V30.7945C0.266846 30.9187 0.292594 31.0404 0.338544 31.1525L0.338753 31.153C0.433745 31.3835 0.617034 31.5667 0.847458 31.6617L0.847966 31.6619C0.96008 31.7079 1.08175 31.7336 1.20597 31.7336H30.7942C30.9184 31.7336 31.0401 31.7079 31.1522 31.6619L31.1527 31.6617C31.3829 31.5668 31.5661 31.3838 31.6612 31.1536C31.7089 31.0394 31.7333 30.9172 31.7333 30.7945V7.93086C31.7333 7.80813 31.7088 7.68595 31.6612 7.57167C31.5661 7.34156 31.3829 7.15854 31.1527 7.06364L31.1522 7.06344C31.0401 7.01748 30.9184 6.99174 30.7942 6.99174H23.1135L16.6641 0.542272ZM31.6612 7.57167L31.6609 7.57113L31.4149 7.67397L31.6614 7.57235L31.6612 7.57167ZM31.6612 31.1536L31.6614 31.153L31.415 31.0514L31.6609 31.1542L31.6612 31.1536ZM8.99709 7.2584V6.99174H8.88664L8.80853 7.06984L8.99709 7.2584ZM20.4576 6.99174H11.5426L16.0001 2.53425L20.4576 6.99174ZM5.62959 11.0265L3.47308 8.86999H28.5271L26.3706 11.0265H5.62959ZM2.1451 10.198L4.30161 12.3545V26.3709L2.1451 28.5274V10.198ZM27.6986 26.3709V12.3545L29.8551 10.198V28.5274L27.6986 26.3709ZM6.17986 25.8206V12.9048H25.8203V25.8206H6.17986ZM3.47308 29.8554L5.62959 27.6989H26.3706L28.5271 29.8554H3.47308Z" fill="#1A1A1A"/>
</svg>
