<svg width="32" height="32" viewBox="0 0 32 32" fill="none" xmlns="http://www.w3.org/2000/svg">
<path fill-rule="evenodd" clip-rule="evenodd" d="M2.46685 0.266968C1.25366 0.266968 0.266846 1.25378 0.266846 2.46697V21.8003C0.266846 23.0135 1.25366 24.0003 2.46685 24.0003H11.8668V29.9112H1.17796C0.674946 29.9112 0.266846 30.3193 0.266846 30.8224C0.266846 31.3254 0.674946 31.7335 1.17796 31.7335H30.8224C31.3254 31.7335 31.7335 31.3254 31.7335 30.8224C31.7335 30.3193 31.3254 29.9112 30.8224 29.9112H20.1339V24.0003H29.5335C30.7467 24.0003 31.7335 23.0135 31.7335 21.8003V2.46697C31.7335 1.25378 30.7467 0.266968 29.5335 0.266968H2.46685ZM2.08907 2.46697C2.08907 2.25851 2.25839 2.08919 2.46685 2.08919H6.06685V4.13363H5.04462C4.54161 4.13363 4.13351 4.54174 4.13351 5.04474C4.13351 5.54775 4.54161 5.95586 5.04462 5.95586H8.91129C9.4143 5.95586 9.8224 5.54775 9.8224 5.04474C9.8224 4.54174 9.4143 4.13363 8.91129 4.13363H7.88907V2.08919H15.0887V4.13363H14.0665C13.5635 4.13363 13.1554 4.54174 13.1554 5.04474C13.1554 5.54775 13.5635 5.95586 14.0665 5.95586H17.9332C18.4362 5.95586 18.8443 5.54775 18.8443 5.04474C18.8443 4.54174 18.4362 4.13363 17.9332 4.13363H16.9109V2.08919H24.1116V4.13363H23.0894C22.5864 4.13363 22.1783 4.54174 22.1783 5.04474C22.1783 5.54775 22.5864 5.95586 23.0894 5.95586H26.9561C27.4591 5.95586 27.8672 5.54775 27.8672 5.04474C27.8672 4.54174 27.4591 4.13363 26.9561 4.13363H25.9339V2.08919H29.5335C29.742 2.08919 29.9113 2.25851 29.9113 2.46697V21.8003C29.9113 22.0088 29.742 22.1781 29.5335 22.1781H19.2403C19.2344 22.178 19.2286 22.1779 19.2227 22.1779C19.2169 22.1779 19.2111 22.178 19.2052 22.1781H12.7952L12.7922 22.178L12.7799 22.1779H12.778L12.7671 22.178L12.7604 22.1781H2.46685C2.25839 22.1781 2.08907 22.0088 2.08907 21.8003V2.46697ZM13.6891 29.9112V24.0003H18.3116V29.9112H13.6891Z" fill="#EC672A"/>
</svg>
