<svg width="32" height="32" viewBox="0 0 32 32" fill="none" xmlns="http://www.w3.org/2000/svg">
<path fill-rule="evenodd" clip-rule="evenodd" d="M7.62254 0.266968C7.11892 0.266968 6.71143 0.674451 6.71143 1.17808V8.0003H2.46699C1.96336 8.0003 1.55588 8.40778 1.55588 8.91141V20.5114C1.55588 21.015 1.96336 21.4225 2.46699 21.4225H8.00032V26.6838C8.00032 26.95 8.11692 27.2032 8.3193 27.3763L13.159 31.5144L13.1595 31.5148C13.3244 31.6566 13.535 31.7336 13.7513 31.7336H23.0893C23.5929 31.7336 24.0004 31.3262 24.0004 30.8225V21.4225H29.5338C30.0374 21.4225 30.4449 21.015 30.4449 20.5114V8.91133C30.4447 8.40778 30.0373 8.0003 29.5337 8.0003H25.2892V1.17808C25.2892 0.674451 24.8817 0.266968 24.3781 0.266968H7.62254ZM8.53366 8.0003V2.08919H23.467V8.0003H8.53366ZM3.3781 19.6003V9.82252H28.6225V19.6003H24.0003V14.9781H25.667C26.1706 14.9781 26.5781 14.5706 26.5781 14.067V11.4892C26.5781 10.9856 26.1706 10.5781 25.667 10.5781H6.33366C5.83003 10.5781 5.42254 10.9856 5.42254 11.4892V14.067C5.42254 14.5706 5.83003 14.9781 6.33366 14.9781H8.00032V19.6003H3.3781ZM7.24477 13.1559V12.4003H24.7559V13.1559H7.24477ZM14.067 26.0447H9.82255V14.9781H22.1781V29.9114H14.9781V26.9559C14.9781 26.4522 14.5706 26.0447 14.067 26.0447ZM13.1559 29.1147L11.6969 27.867H13.1559V29.1147Z" fill="#1A1A1A"/>
</svg>
