<svg width="32" height="32" viewBox="0 0 32 32" fill="none" xmlns="http://www.w3.org/2000/svg">
<path fill-rule="evenodd" clip-rule="evenodd" d="M3.75608 0.266968C3.25307 0.266968 2.84497 0.67507 2.84497 1.17808V29.9112H1.17796C0.674946 29.9112 0.266846 30.3193 0.266846 30.8224C0.266846 31.3254 0.674946 31.7335 1.17796 31.7335H3.73899L3.75608 31.7336L3.77317 31.7335H19.2056L19.2118 31.7336L19.2227 31.7336L19.2398 31.7335H30.8224C31.3254 31.7335 31.7335 31.3254 31.7335 30.8224C31.7335 30.3193 31.3254 29.9112 30.8224 29.9112H20.1339V24.0003H28.245C28.748 24.0003 29.1561 23.5922 29.1561 23.0892V1.17808C29.1561 0.67507 28.748 0.266968 28.245 0.266968H19.2227C18.751 0.266968 18.3631 0.625714 18.3163 1.08525C18.3132 1.11585 18.3116 1.14683 18.3116 1.17808V29.9112H4.66719V24.0003H12.7783C13.2813 24.0003 13.6894 23.5922 13.6894 23.0892V1.17808C13.6894 0.67507 13.2813 0.266968 12.7783 0.266968H3.75608ZM11.8672 2.08919H4.66719V14.6081C4.72027 14.8239 4.8871 15.4235 5.20884 15.9757C5.55222 16.5651 6.02359 17.0225 6.65632 17.0225C6.86301 17.0225 7.0167 16.9841 7.13967 16.9179C7.2626 16.8517 7.37269 16.7481 7.4775 16.5902C7.6959 16.2612 7.86424 15.7418 8.07185 14.9693L8.07841 14.945C8.24928 14.3118 8.45421 13.5525 8.84613 12.9532C9.25545 12.3274 9.87478 11.867 10.8452 11.867C11.229 11.867 11.5695 11.9623 11.8672 12.1143V2.08919ZM20.1339 14.6081V2.08919H27.3339V12.1143C27.0361 11.9623 26.6957 11.867 26.3119 11.867C25.3414 11.867 24.7221 12.3274 24.3128 12.9532C23.9209 13.5525 23.7159 14.3119 23.5451 14.945L23.5384 14.9696C23.3308 15.7421 23.1626 16.2612 22.9442 16.5902C22.8394 16.7481 22.7293 16.8517 22.6063 16.9179C22.4834 16.9841 22.3297 17.0225 22.123 17.0225C21.4903 17.0225 21.0189 16.5651 20.6755 15.9757C20.3538 15.4235 20.1869 14.8239 20.1339 14.6081ZM9.83191 15.4443C10.0164 14.7573 10.1574 14.3063 10.3235 14.0249C10.4033 13.8897 10.48 13.8098 10.5556 13.7623C10.6285 13.7164 10.7182 13.6892 10.8452 13.6892C11.0197 13.6892 11.2289 13.8324 11.4444 14.1168C11.6339 14.3668 11.7826 14.6666 11.8672 14.8747V22.1781H4.66719V18.1347C5.18364 18.5536 5.83874 18.8447 6.65632 18.8447C7.78305 18.8447 8.49903 18.3288 8.96866 17.6351C9.42069 16.9674 9.6462 16.1322 9.82533 15.4687L9.83191 15.4443ZM25.2986 15.4443C25.483 14.7573 25.6241 14.3063 25.7901 14.0249C25.8699 13.8897 25.9467 13.8098 26.0223 13.7623C26.0951 13.7164 26.1849 13.6892 26.3119 13.6892C26.4864 13.6892 26.6956 13.8324 26.9111 14.1168C27.1006 14.3668 27.2492 14.6666 27.3339 14.8747V22.1781H20.1339V18.1347C20.6503 18.5536 21.3054 18.8447 22.123 18.8447C23.2497 18.8447 23.9657 18.3288 24.4353 17.6351C24.8873 16.9674 25.1129 16.1322 25.292 15.4688L25.2986 15.4443Z" fill="#EC672A"/>
</svg>
