<svg width="32" height="32" viewBox="0 0 32 32" fill="none" xmlns="http://www.w3.org/2000/svg">
<path fill-rule="evenodd" clip-rule="evenodd" d="M7.62401 22.1784C7.12079 22.1784 6.71164 22.586 6.71164 23.0895V26.9562C6.71164 27.4597 7.12079 27.8673 7.62401 27.8673H24.3771C24.8803 27.8673 25.2894 27.4597 25.2894 26.9562V23.0895C25.2894 22.586 24.8803 22.1784 24.3771 22.1784H7.62401ZM8.53638 26.0451V24.0007H23.4647V26.0451H8.53638Z" fill="#EC672A"/>
<path fill-rule="evenodd" clip-rule="evenodd" d="M3.75539 0.266968C2.5422 0.266968 1.55539 1.25378 1.55539 2.46697V10.2003C1.55539 11.4135 2.5422 12.4003 3.75539 12.4003H4.13351V14.4451H1.17796C0.674948 14.4451 0.266846 14.8532 0.266846 15.3562V19.2229C0.266846 19.7259 0.674948 20.134 1.17796 20.134H2.84497V30.8229C2.84497 31.3259 3.25307 31.734 3.75608 31.734H28.245C28.748 31.734 29.1561 31.3259 29.1561 30.8229V20.134H30.8224C31.3254 20.134 31.7335 19.7259 31.7335 19.2229V15.3562C31.7335 14.8532 31.3254 14.4451 30.8224 14.4451H27.8672V12.4003H28.2443C29.4575 12.4003 30.4443 11.4135 30.4443 10.2003V2.46697C30.4443 1.25378 29.4575 0.266968 28.2443 0.266968H3.75539ZM3.37761 2.46697C3.37761 2.25852 3.54692 2.0892 3.75537 2.08919L8.64497 2.08952V4.13364H7.62275C7.11974 4.13364 6.71164 4.54174 6.71164 5.04475C6.71164 5.54776 7.11974 5.95586 7.62275 5.95586H9.53066C9.53911 5.95609 9.54759 5.95621 9.55608 5.95621C9.56458 5.95621 9.57305 5.95609 9.58151 5.95586H11.4894C11.9924 5.95586 12.4005 5.54776 12.4005 5.04475C12.4005 4.54174 11.9924 4.13364 11.4894 4.13364H10.4672V2.0892L21.5335 2.08953V4.13364H20.5113C20.0083 4.13364 19.6002 4.54174 19.6002 5.04475C19.6002 5.54776 20.0083 5.95586 20.5113 5.95586H22.4201L22.4295 5.95611L22.4428 5.9562L22.4446 5.95621C22.4531 5.95621 22.4616 5.95609 22.4701 5.95586H24.378C24.881 5.95586 25.2891 5.54776 25.2891 5.04475C25.2891 4.54174 24.881 4.13364 24.378 4.13364H23.3557V2.08919H28.2443C28.4527 2.08919 28.6221 2.25851 28.6221 2.46697V10.2003C28.6221 10.4088 28.4527 10.5781 28.2443 10.5781H3.75539C3.54693 10.5781 3.37761 10.4088 3.37761 10.2003V2.46697ZM5.95573 14.4451V12.4003H15.0887V14.4451H5.95573ZM16.9109 14.4451V12.4003H26.045V14.4451H16.9109ZM2.08907 18.3118V16.2673H29.9113V18.3118H2.08907ZM4.66719 29.9118V20.134H27.3339V29.9118H4.66719Z" fill="#EC672A"/>
</svg>
