<svg width="32" height="32" viewBox="0 0 32 32" fill="none" xmlns="http://www.w3.org/2000/svg">
<path fill-rule="evenodd" clip-rule="evenodd" d="M7.62239 0.266968C5.6977 0.266968 4.13351 1.83256 4.13351 3.75584V4.13363H3.75572C1.83103 4.13363 0.266846 5.69923 0.266846 7.62251V10.5947C0.266846 12.3066 1.49415 13.7544 3.18215 14.0362L14.3414 15.896C15.0187 16.0089 15.5394 16.5133 15.6895 17.1556C14.2283 17.5721 13.1559 18.9188 13.1559 20.5116V28.2449C13.1559 30.1682 14.7201 31.7338 16.6448 31.7338C18.5695 31.7339 20.1336 30.1683 20.1336 28.245V20.5116C20.1336 18.8946 19.0283 17.5311 17.533 17.1373C17.358 15.6048 16.1944 14.3572 14.6404 14.0978L3.48122 12.2379C2.67405 12.1034 2.08905 11.4129 2.08905 10.5947V7.62251C2.08905 6.70385 2.83706 5.95584 3.75572 5.95584H4.13351V6.33364C4.13351 8.25692 5.6977 9.82252 7.62239 9.82252H24.3779C26.3027 9.82252 27.8669 8.25692 27.8669 6.33364V5.9559H30.8223C31.3253 5.9559 31.7334 5.54778 31.7334 5.04477C31.7334 4.54176 31.3253 4.13363 30.8223 4.13363H27.8669V3.75584C27.8669 1.83256 26.3027 0.266968 24.378 0.266968H7.62239ZM5.95572 3.75584C5.95572 2.83718 6.70373 2.08917 7.62239 2.08917H24.3779C25.2966 2.08917 26.0446 2.83718 26.0446 3.75584V5.02829L26.0445 5.03415L26.0445 5.04477C26.0445 5.04696 26.0445 5.04916 26.0445 5.05137C26.0445 5.0549 26.0445 5.05845 26.0446 5.062V6.33364C26.0446 7.25231 25.2966 8.00031 24.378 8.00031H7.62239C6.70373 8.00031 5.95572 7.2523 5.95572 6.33364V5.04729L5.95572 5.04523V5.04418L5.95572 5.0416L5.95572 3.75584ZM14.9781 20.5116C14.9781 19.593 15.7261 18.845 16.6448 18.845C17.5634 18.845 18.3114 19.593 18.3114 20.5116V28.245C18.3114 29.1636 17.5634 29.9116 16.6448 29.9116C15.7261 29.9116 14.9781 29.1636 14.9781 28.245V20.5116Z" fill="#1A1A1A"/>
</svg>
