<svg width="60" height="60" viewBox="0 0 60 60" fill="none" xmlns="http://www.w3.org/2000/svg">
<path d="M12.4219 42.3047C9.5141 42.3047 7.14844 44.6704 7.14844 47.5781C7.14844 50.4859 9.5141 52.8516 12.4219 52.8516C15.3296 52.8516 17.6953 50.4859 17.6953 47.5781C17.6953 44.6704 15.3296 42.3047 12.4219 42.3047ZM12.4219 49.3359C11.4526 49.3359 10.6641 48.5474 10.6641 47.5781C10.6641 46.6089 11.4526 45.8203 12.4219 45.8203C13.3911 45.8203 14.1797 46.6089 14.1797 47.5781C14.1797 48.5474 13.3911 49.3359 12.4219 49.3359Z" fill="#EC672A"/>
<path d="M56.8274 35.7113C58.0266 34.0884 58.2475 31.8254 57.157 29.937L50.1294 17.6475C48.9137 15.5419 46.3501 14.5811 44.0633 15.1923C44.5502 13.0036 43.5949 10.6555 41.5528 9.47648L29.375 2.4457C27.6359 1.44141 25.5564 1.5443 23.9571 2.53348C23.0303 1.01555 21.3581 0 19.4531 0H5.27344C2.36566 0 0 2.36566 0 5.27344C0 6.49277 0 53.3229 0 54.7266C0 57.6343 2.36566 60 5.27344 60C6.63902 60 48.0431 60 54.7266 60C57.6343 60 60 57.6343 60 54.7266V40.5469C60 38.3856 58.6925 36.5246 56.8274 35.7113ZM21.2109 54.7266C21.2109 55.6958 20.4224 56.4844 19.4531 56.4844H5.27344C4.30418 56.4844 3.51562 55.6958 3.51562 54.7266C3.51562 53.9235 3.51562 39.5604 3.51562 38.7891H21.2109V54.7266ZM21.2109 35.2734H3.51562V21.0938H21.2109V35.2734ZM21.2109 17.5781H3.51562V5.27344C3.51562 4.30418 4.30418 3.51562 5.27344 3.51562H19.4531C20.4224 3.51562 21.2109 4.30418 21.2109 5.27344V17.5781ZM24.7266 6.98063L25.2154 6.13394C25.7003 5.2943 26.7777 5.00555 27.6172 5.49035L39.795 12.5211C40.6347 13.0059 40.9233 14.0834 40.4372 14.9254L38.4061 18.4559C38.3552 18.531 38.3095 18.609 38.2711 18.6905L24.7266 42.2338V6.98063ZM24.7266 49.2838L41.1588 20.7209L44.5564 18.7593C45.4178 18.262 46.5991 18.564 47.0813 19.399L54.1089 31.6884C54.595 32.5303 54.3115 33.6096 53.4609 34.1006C52.2056 34.8273 25.9628 50.0201 24.7266 50.7357V49.2838ZM56.4844 54.7266C56.4844 55.6958 55.6958 56.4844 54.7266 56.4844H24.4242C24.6116 55.9559 24.7167 55.3891 24.7248 54.7991L52.3793 38.7891H54.7266C55.6958 38.7891 56.4844 39.5776 56.4844 40.5469V54.7266Z" fill="#EC672A"/>
</svg>
