<svg width="60" height="60" viewBox="0 0 60 60" fill="none" xmlns="http://www.w3.org/2000/svg">
<path d="M51.2109 3.51562H48.3062L45.3054 0.514805C45.3042 0.513633 45.303 0.512695 45.3019 0.511641C44.9695 0.181289 44.5185 0 44.0625 0H15.9375C15.4901 0 15.0352 0.176484 14.6981 0.511641C14.697 0.512812 14.6958 0.51375 14.6946 0.514805L11.6938 3.51562H8.78906C3.94277 3.51562 0 7.4584 0 12.3047V51.2109C0 56.0572 3.94277 60 8.78906 60H51.2109C56.0572 60 60 56.0572 60 51.2109V12.3047C60 7.4584 56.0572 3.51562 51.2109 3.51562ZM45.6315 5.81273L42.8888 16.7838L33.3301 12.0045C34.8633 10.8546 42.3655 5.22785 43.8976 4.07883L45.6315 5.81273ZM32.6016 29.767L33.63 38.0636L25.3424 46.3512L26.662 35.7067L32.6016 29.767ZM27.3656 30.0313L28.0377 24.6094H31.9622L32.0532 25.3437L27.3656 30.0313ZM32.4292 21.0938H27.5707L25.327 16.6064L30 14.27L34.6729 16.6065L32.4292 21.0938ZM38.7891 3.51562L30 10.1074L21.2109 3.51562H38.7891ZM16.1025 4.07883C17.6357 5.22867 25.1379 10.8554 26.67 12.0045L17.1115 16.7837L14.3687 5.81262L16.1025 4.07883ZM8.78906 56.4844C5.88129 56.4844 3.51562 54.1187 3.51562 51.2109V12.3047C3.51562 9.39691 5.88129 7.03125 8.78906 7.03125H11.0494L14.2321 19.7623C14.5048 20.853 15.7193 21.4103 16.7235 20.9082L22.1825 18.1787L24.6744 23.1626C24.4549 24.9332 21.3263 50.1708 21.2242 50.9947C21.2234 51.0016 21.2236 51.0086 21.2228 51.0155C21.162 51.5621 21.364 52.0923 21.7257 52.4539L25.7563 56.4844H8.78906ZM25.4546 51.2109L34.1784 42.4871L35.1811 50.5751L30 55.7563L25.4546 51.2109ZM56.4844 51.2109C56.4844 54.1187 54.1187 56.4844 51.2109 56.4844H34.2437L38.2741 52.4539C38.6573 52.0709 38.8424 51.5324 38.7757 50.9947C38.6305 49.8238 35.4807 24.4151 35.3255 23.1626L37.8173 18.1787L43.2764 20.9082C44.2809 21.4105 45.4951 20.8532 45.7678 19.7623L48.9506 7.03125H51.2109C54.1187 7.03125 56.4844 9.39691 56.4844 12.3047V51.2109Z" fill="#EC672A"/>
</svg>
