<svg width="60" height="60" viewBox="0 0 60 60" fill="none" xmlns="http://www.w3.org/2000/svg">
<g clip-path="url(#clip0)">
<path d="M58.2422 33.4572H49.4532V21.1526C49.4532 20.1818 48.6662 19.3948 47.6954 19.3948H42.422V7.09021C42.422 6.11943 41.635 5.3324 40.6642 5.3324H26.6018C25.631 5.3324 24.844 6.11943 24.844 7.09021V19.3948H19.5706C18.5998 19.3948 17.8128 20.1818 17.8128 21.1526V33.4572H10.5472V14.9513C10.5472 11.6008 8.68554 8.58867 5.68872 7.09021L2.54425 5.51791C1.67636 5.08397 0.620158 5.43564 0.185981 6.304C-0.248196 7.17235 0.103716 8.22809 0.97207 8.66238L4.11654 10.2347C5.91466 11.1337 7.03157 12.941 7.03157 14.9513V45.7619C7.03157 46.7326 7.81859 47.5197 8.78937 47.5197H14.3001C14.2349 51.4829 17.4419 54.6681 21.3284 54.6681C25.2174 54.6681 28.4217 51.4796 28.3566 47.5197H42.428C42.1987 50.9838 45.2463 54.6681 49.4532 54.6681C53.6195 54.6681 56.71 51.0185 56.4784 47.5197H58.2422C59.213 47.5197 60 46.7326 60 45.7619V35.215C60 34.2443 59.213 33.4572 58.2422 33.4572ZM45.9376 33.4572H35.3908V22.9104H38.9064V24.6682C38.9064 25.639 39.6934 26.426 40.6642 26.426C41.635 26.426 42.422 25.639 42.422 24.6682V22.9104H45.9376V33.4572ZM28.3596 8.84801H31.8752V10.723C31.8752 11.6938 32.6622 12.4808 33.633 12.4808C34.6037 12.4808 35.3908 11.6938 35.3908 10.723V8.84801H38.9064V19.3948C37.6303 19.3948 29.6441 19.3948 28.3596 19.3948V8.84801ZM21.3284 22.9104H24.844V24.6682C24.844 25.639 25.631 26.426 26.6018 26.426C27.5725 26.426 28.3596 25.639 28.3596 24.6682V22.9104H31.8752V33.4572H21.3284V22.9104ZM21.3284 51.1524C19.3899 51.1524 17.8128 49.5753 17.8128 47.6368C17.8128 45.6983 19.3899 44.1212 21.3284 44.1212C23.2669 44.1212 24.844 45.6983 24.844 47.6368C24.844 49.5753 23.2669 51.1524 21.3284 51.1524ZM52.9688 47.6368C52.9688 49.5753 51.3917 51.1524 49.4532 51.1524C47.5147 51.1524 45.9376 49.5753 45.9376 47.6368C45.9376 47.5972 45.9342 47.5586 45.9316 47.5197H52.9747C52.9722 47.5586 52.9688 47.5972 52.9688 47.6368ZM56.4844 44.0041H27.3461C24.602 39.4754 18.0537 39.4769 15.3105 44.0041H10.5472V36.9728H56.4844V44.0041Z" fill="#EC672A"/>
</g>
<defs>
<clipPath id="clip0">
<rect width="60" height="60" fill="white"/>
</clipPath>
</defs>
</svg>
