<svg width="60" height="60" viewBox="0 0 60 60" fill="none" xmlns="http://www.w3.org/2000/svg">
<path d="M30.0001 0C19.6872 0 11.2969 8.39033 11.2969 18.7033C11.2969 24.6386 14.0952 30.1771 18.828 33.7037V35.2656C17.6753 36.2786 16.9457 37.7622 16.9457 39.4138C16.9457 40.8681 17.5115 42.1924 18.4334 43.1798C17.5115 44.1672 16.9457 45.4911 16.9457 46.9454C16.9457 49.4228 18.5849 51.5244 20.8362 52.222C21.5604 56.6275 25.3928 59.9999 30.0001 59.9999C34.6075 59.9999 38.4404 56.6275 39.1646 52.222C41.4154 51.5239 43.0551 49.4228 43.0551 46.9449C43.0551 45.4911 42.4893 44.1668 41.5674 43.1794C42.4893 42.192 43.0551 40.8681 43.0551 39.4138C43.0551 37.7622 42.3254 36.2786 41.1723 35.2651V33.7037C45.9051 30.1771 48.7034 24.6386 48.7034 18.7033C48.7034 8.39033 40.3131 0 30.0001 0ZM37.5317 37.4061C38.6386 37.4061 39.5395 38.307 39.5395 39.4138C39.5395 40.5212 38.6386 41.422 37.5317 41.422H22.469C21.3617 41.422 20.4608 40.5212 20.4608 39.4138C20.4608 38.307 21.3617 37.4061 22.469 37.4061H37.5317ZM30.0001 56.4843C27.4293 56.4843 25.2458 54.7951 24.5001 52.4688H35.5002C34.7549 54.7956 32.5709 56.4843 30.0001 56.4843ZM37.5317 48.9531H22.469C21.3617 48.9531 20.4608 48.0523 20.4608 46.9454C20.4608 45.8381 21.3617 44.9377 22.469 44.9377H37.5317C38.6386 44.9377 39.5395 45.8381 39.5395 46.9454C39.5395 48.0523 38.6386 48.9531 37.5317 48.9531ZM38.4367 31.3334C37.9492 31.6598 37.6567 32.2077 37.6567 32.7941V33.8937C37.615 33.8928 37.5734 33.8905 37.5317 33.8905H35.5235V26.9627L38.0476 24.4386C38.7343 23.7519 38.7343 22.6391 38.0476 21.9525C37.3614 21.2658 36.2481 21.2658 35.562 21.9525L32.5229 24.9916C32.1933 25.3211 32.0079 25.7679 32.0079 26.2344V33.8905H27.9924V26.2344C27.9924 25.7684 27.807 25.3211 27.4774 24.9916L24.4383 21.9525C23.7521 21.2663 22.6393 21.2663 21.9527 21.9525C21.266 22.6391 21.266 23.7519 21.9527 24.4386L24.4768 26.9627V33.8909H22.469C22.4269 33.8909 22.3853 33.8928 22.3436 33.8937V32.7941C22.3436 32.2077 22.0511 31.6598 21.5636 31.3334C17.3366 28.5035 14.8125 23.7821 14.8125 18.7033C14.8125 10.3285 21.6258 3.51562 30.0001 3.51562C38.3745 3.51562 45.1878 10.3285 45.1878 18.7033C45.1878 23.7821 42.6637 28.5035 38.4367 31.3334Z" fill="#EC672A"/>
<path d="M7.28119 18.7031C7.28119 17.7322 6.49429 16.9453 5.52338 16.9453H1.75781C0.786896 16.9453 0 17.7322 0 18.7031C0 19.6736 0.786896 20.4609 1.75781 20.4609H5.52338C6.49429 20.4609 7.28119 19.6736 7.28119 18.7031Z" fill="#EC672A"/>
<path d="M58.2421 16.9453H54.4766C53.5061 16.9453 52.7188 17.7322 52.7188 18.7031C52.7188 19.6736 53.5061 20.4609 54.4766 20.4609H58.2421C59.213 20.4609 59.9999 19.6736 59.9999 18.7031C59.9999 17.7322 59.213 16.9453 58.2421 16.9453Z" fill="#EC672A"/>
<path d="M7.92319 29.4193L4.66208 31.3021C3.82162 31.7878 3.53369 32.8626 4.01892 33.7035C4.34439 34.2675 4.93536 34.5824 5.54281 34.5824C5.84082 34.5824 6.1434 34.5069 6.41989 34.3467L9.681 32.4643C10.5219 31.9787 10.8098 30.9038 10.3246 30.0629C9.83938 29.222 8.7641 28.9341 7.92319 29.4193Z" fill="#EC672A"/>
<path d="M51.1993 8.22336C51.4973 8.22336 51.7994 8.14737 52.0763 7.98761L55.3379 6.10437C56.1784 5.61914 56.4668 4.54431 55.9811 3.7034C55.4954 2.86248 54.4206 2.57455 53.5801 3.06024L50.3185 4.94302C49.4781 5.42825 49.1897 6.50354 49.6754 7.34399C50.0008 7.90796 50.5918 8.22336 51.1993 8.22336Z" fill="#EC672A"/>
<path d="M55.3376 31.3016L52.0765 29.4193C51.2356 28.9341 50.1603 29.222 49.6751 30.0629C49.1898 30.9034 49.4782 31.9787 50.3187 32.4639L53.5802 34.3462C53.8567 34.506 54.1589 34.582 54.4573 34.582C55.0648 34.582 55.6558 34.2666 55.9812 33.7026C56.4669 32.8621 56.1785 31.7869 55.3376 31.3016Z" fill="#EC672A"/>
<path d="M9.68217 4.94245L6.42107 3.06012C5.58016 2.57443 4.50533 2.86282 4.0201 3.70374C3.53441 4.54465 3.8228 5.61948 4.66326 6.10471L7.92436 7.98749C8.20131 8.14725 8.50343 8.22324 8.80144 8.22324C9.40935 8.22324 9.99986 7.90784 10.3258 7.34388C10.811 6.50297 10.5226 5.42813 9.68217 4.94245Z" fill="#EC672A"/>
</svg>
