<svg width="60" height="60" viewBox="0 0 60 60" fill="none" xmlns="http://www.w3.org/2000/svg">
<g clip-path="url(#clip0)">
<path d="M59.0106 31.8943C59.0106 28.8515 56.5352 26.3761 53.4925 26.3761H51.614H43.4876C45.0371 23.5713 45.861 20.924 45.861 17.2679V16.677C45.861 16.6766 45.861 16.6764 45.861 16.6761C45.8604 14.7094 45.1004 12.8549 43.7204 11.4543C42.3412 10.0545 40.4998 9.26652 38.5354 9.23582C38.5166 9.23559 38.4978 9.23535 38.479 9.23535C36.5751 9.23535 34.9101 10.7496 34.7538 12.6365C34.0083 21.6343 25.3382 26.2711 19.5387 29.0914V28.1603C19.5387 27.1877 18.7502 26.3992 17.7776 26.3992H2.74937C1.77672 26.3992 0.988281 27.1878 0.988281 28.1603V58.2166C0.988281 59.1891 1.77684 59.9777 2.74937 59.9777H14.0205C16.1793 59.9777 18.0512 58.7309 18.9575 56.9201C25.2298 59.6447 30.679 59.9996 36.9368 59.9996C38.0057 59.9996 39.0992 59.9893 40.2235 59.9786C41.4667 59.9669 42.7523 59.9547 44.0999 59.9547H49.6681C52.7109 59.9547 55.1862 57.4792 55.1862 54.4366C55.1862 53.4135 54.9064 52.4547 54.4192 51.6324C56.0047 50.6617 57.0647 48.9137 57.0647 46.9225C57.0647 45.8995 56.785 44.9406 56.2977 44.1183C57.8832 43.1477 58.9432 41.3997 58.9432 39.4084C58.9432 37.9755 58.394 36.6687 57.4953 35.6868C58.4332 34.697 59.0106 33.3621 59.0106 31.8943ZM16.0164 54.4594C16.0164 55.56 15.1211 56.4554 14.0205 56.4554H12.0245V50.7024C12.0245 49.7297 11.236 48.9413 10.2634 48.9413C9.2909 48.9413 8.50234 49.7298 8.50234 50.7024V56.4554H4.51059V29.9213H16.0165V54.4594H16.0164ZM49.7355 37.4124H51.614H53.4251C54.5257 37.4124 55.4211 38.3077 55.4211 39.4083C55.4211 40.5089 54.5257 41.4043 53.4251 41.4043H51.614H51.5466H49.7355C48.7628 41.4043 47.9744 42.1928 47.9744 43.1654C47.9744 44.1379 48.7629 44.9264 49.7355 44.9264H51.5466C52.6472 44.9264 53.5425 45.8218 53.5425 46.9224C53.5425 48.023 52.6472 48.9183 51.5466 48.9183H49.6681C48.6954 48.9183 47.907 49.7069 47.907 50.6794C47.907 51.652 48.6955 52.4405 49.6681 52.4405C50.7687 52.4405 51.664 53.3358 51.664 54.4364C51.664 55.5371 50.7687 56.4324 49.6681 56.4324H44.0999C42.7356 56.4324 41.4416 56.4446 40.1902 56.4565C32.3396 56.5307 26.5718 56.5855 19.5618 53.3307V32.9922H19.5617C19.745 32.9036 19.933 32.8128 20.1249 32.7203C23.1864 31.2442 27.3793 29.2227 30.9844 26.161C35.3978 22.4126 37.8471 17.9601 38.264 12.9271C38.2689 12.8673 38.3838 12.7573 38.4783 12.7573C38.4789 12.7573 38.4796 12.7573 38.4802 12.7573C40.6079 12.7906 42.3388 14.5495 42.3388 16.678V17.2677C42.3388 20.9287 41.3841 23.245 39.3871 26.376H36.5859C35.6132 26.376 34.8248 27.1646 34.8248 28.1371C34.8248 29.1098 35.6133 29.8982 36.5859 29.8982H40.3554C40.3572 29.8982 40.3589 29.8982 40.3607 29.8982H51.614H53.4925C54.5931 29.8982 55.4884 30.7935 55.4884 31.8941C55.4884 32.9948 54.5931 33.8901 53.4925 33.8901H51.614H49.7355C48.7628 33.8901 47.9744 34.6786 47.9744 35.6512C47.9744 36.6238 48.7629 37.4124 49.7355 37.4124Z" fill="#EC672A"/>
<path d="M55.3482 13.0146H51.5912C50.6185 13.0146 49.8301 13.8032 49.8301 14.7757C49.8301 15.7483 50.6186 16.5368 51.5912 16.5368H55.3482C56.3209 16.5368 57.1093 15.7483 57.1093 14.7757C57.1093 13.8032 56.3209 13.0146 55.3482 13.0146Z" fill="#EC672A"/>
<path d="M29.0494 13.0146H25.2923C24.3197 13.0146 23.5312 13.8032 23.5312 14.7757C23.5312 15.7483 24.3198 16.5368 25.2923 16.5368H29.0494C30.0219 16.5368 30.8104 15.7483 30.8104 14.7757C30.8104 13.8032 30.0219 13.0146 29.0494 13.0146Z" fill="#EC672A"/>
<path d="M36.2099 4.13456L34.3313 0.88085C33.845 0.0385067 32.7679 -0.250126 31.9257 0.236319C31.0834 0.722647 30.7949 1.79972 31.2812 2.64194L33.1597 5.89566C33.4858 6.46073 34.0779 6.77644 34.6864 6.77644C34.9851 6.77644 35.2881 6.70038 35.5653 6.54019C36.4076 6.05398 36.6962 4.97691 36.2099 4.13456Z" fill="#EC672A"/>
<path d="M48.7158 0.236346C47.8734 -0.250217 46.7962 0.0386504 46.3101 0.880877L44.4316 4.13459C43.9452 4.97681 44.2338 6.054 45.0762 6.54021C45.3534 6.70041 45.6562 6.77646 45.9551 6.77646C46.5637 6.77646 47.1558 6.46064 47.4818 5.89568L49.3603 2.64197C49.8466 1.79974 49.5581 0.722674 48.7158 0.236346Z" fill="#EC672A"/>
</g>
<defs>
<clipPath id="clip0">
<rect width="60" height="60" fill="white"/>
</clipPath>
</defs>
</svg>
