<svg width="60" height="60" viewBox="0 0 60 60" fill="none" xmlns="http://www.w3.org/2000/svg">
<g clip-path="url(#clip0)">
<path d="M59.8512 26.9854L56.1895 18.8477C55.2836 16.834 53.4887 15.2982 51.3642 14.7022C50.7096 14.5182 50.0294 14.4248 49.3491 14.4248H10.6516C8.37564 14.4248 6.17379 15.4964 4.76342 17.2808C4.38302 17.7614 4.06259 18.2888 3.81128 18.8477L0.149624 26.9854C-0.1319 27.6107 -0.00876191 28.3674 0.456784 28.8709L28.7228 59.444C29.3948 60.1833 30.6065 60.1833 31.278 59.444L59.544 28.8709C60.0077 28.3687 60.1318 27.6089 59.8512 26.9854ZM48.901 17.8869L41.5402 25.2477L34.1793 17.8869H48.901ZM37.3612 25.9646H22.6396L30.0004 18.6037L37.3612 25.9646ZM25.8215 17.8869L18.4606 25.2477L11.0998 17.8869H25.8215ZM6.96847 20.2682C7.13189 19.9052 7.34567 19.5742 7.59881 19.2821L14.2817 25.9646H4.40499L6.96847 20.2682ZM5.68582 29.4266H17.2636L25.2483 50.5868L5.68582 29.4266ZM30.0004 53.3732L20.9641 29.4266H39.0366L30.0004 53.3732ZM34.7524 50.5863L42.7372 29.4266H54.315L34.7524 50.5863ZM45.7191 25.9646L52.4015 19.2821C52.6551 19.5742 52.8689 19.9052 53.0323 20.2682L55.5958 25.9646H45.7191Z" fill="#EC672A"/>
<path d="M30.0003 10.963C30.9561 10.963 31.7311 10.188 31.7311 9.23172V1.7308C31.7311 0.774994 30.9561 0 30.0003 0C29.0445 0 28.2695 0.774994 28.2695 1.7308V9.23172C28.2695 10.188 29.0445 10.963 30.0003 10.963Z" fill="#EC672A"/>
<path d="M20.6983 9.30158C21.3653 9.96854 22.4795 9.96854 23.1464 9.30158C23.8221 8.62592 23.8221 7.52958 23.1464 6.85346L19.6844 3.39185C19.0082 2.71574 17.9124 2.71574 17.2362 3.39185C16.5606 4.06751 16.5606 5.16386 17.2362 5.83952L20.6983 9.30158Z" fill="#EC672A"/>
<path d="M39.3024 9.30158L42.7645 5.83952C43.4406 5.16386 43.4406 4.06797 42.7645 3.39185C42.0884 2.71574 40.9925 2.71574 40.3164 3.39185L36.8547 6.85346C36.1786 7.52958 36.1786 8.62547 36.8547 9.30158C37.5217 9.96854 38.6354 9.96854 39.3024 9.30158Z" fill="#EC672A"/>
</g>
<defs>
<clipPath id="clip0">
<rect width="60" height="60" fill="white"/>
</clipPath>
</defs>
</svg>
