<svg width="23" height="22" viewBox="0 0 23 22" fill="none" xmlns="http://www.w3.org/2000/svg">
<path d="M10.3008 11.401C9.96996 10.9587 9.34327 10.8684 8.90102 11.1992C8.45877 11.53 8.36843 12.1567 8.69923 12.5989L10.3008 11.401ZM17.04 12.54L16.3329 11.8329L16.3328 11.833L17.04 12.54ZM20.04 9.53997L20.7471 10.2471L20.7533 10.2409L20.7593 10.2347L20.04 9.53997ZM12.97 2.46997L12.2753 1.75068L12.2701 1.7557L12.265 1.7608L12.97 2.46997ZM10.545 3.4708L9.83579 4.17584L11.2459 5.59417L11.955 4.88913L10.545 3.4708ZM8.69923 12.5989C9.21458 13.2879 9.87206 13.858 10.6271 14.2705L11.586 12.5153C11.0827 12.2403 10.6443 11.8603 10.3008 11.401L8.69923 12.5989ZM10.6271 14.2705C11.3821 14.683 12.217 14.9283 13.0752 14.9897L13.2181 12.9949C12.646 12.9539 12.0894 12.7903 11.586 12.5153L10.6271 14.2705ZM13.0752 14.9897C13.9334 15.0512 14.7947 14.9274 15.6008 14.6267L14.9018 12.7528C14.3644 12.9533 13.7902 13.0358 13.2181 12.9949L13.0752 14.9897ZM15.6008 14.6267C16.407 14.326 17.139 13.8554 17.7472 13.2469L16.3328 11.833C15.9273 12.2386 15.4392 12.5523 14.9018 12.7528L15.6008 14.6267ZM17.7471 13.2471L20.7471 10.2471L19.3329 8.83286L16.3329 11.8329L17.7471 13.2471ZM20.7593 10.2347C21.8522 9.10306 22.457 7.58745 22.4433 6.01427L20.4434 6.03165C20.4525 7.08044 20.0493 8.09085 19.3207 8.84525L20.7593 10.2347ZM22.4433 6.01427C22.4297 4.44109 21.7986 2.93621 20.6862 1.82377L19.272 3.23798C20.0136 3.97961 20.4343 4.98286 20.4434 6.03165L22.4433 6.01427ZM20.6862 1.82377C19.5738 0.711317 18.0689 0.0803035 16.4957 0.066633L16.4783 2.06656C17.5271 2.07567 18.5304 2.49635 19.272 3.23798L20.6862 1.82377ZM16.4957 0.066633C14.9225 0.0529625 13.4069 0.657729 12.2753 1.75068L13.6647 3.18925C14.4191 2.46062 15.4295 2.05744 16.4783 2.06656L16.4957 0.066633ZM12.265 1.7608L10.545 3.4708L11.955 4.88913L13.675 3.17913L12.265 1.7608Z" fill="#1A1A1A"/>
<path d="M12.6994 10.5992C13.0302 11.0415 13.6569 11.1318 14.0992 10.801C14.5414 10.4702 14.6318 9.8435 14.301 9.40125L12.6994 10.5992ZM5.9602 9.46022L6.66731 10.1673L6.66743 10.1672L5.9602 9.46022ZM2.9602 12.4602L2.25309 11.7531L2.24695 11.7593L2.24091 11.7655L2.9602 12.4602ZM10.0302 19.5302L10.7249 20.2495L10.7312 20.2435L10.7373 20.2373L10.0302 19.5302ZM12.4473 18.5273L13.1544 17.8202L11.7402 16.406L11.0331 17.1131L12.4473 18.5273ZM14.301 9.40125C13.7856 8.71229 13.1281 8.14223 12.3731 7.72972L11.4142 9.48485C11.9175 9.75986 12.3559 10.1399 12.6994 10.5992L14.301 9.40125ZM12.3731 7.72972C11.6181 7.31721 10.7832 7.07191 9.92498 7.01045L9.78211 9.00534C10.3542 9.04631 10.9108 9.20985 11.4142 9.48485L12.3731 7.72972ZM9.92498 7.01045C9.06681 6.94899 8.20546 7.07281 7.39935 7.37351L8.09836 9.24738C8.63577 9.04691 9.21 8.96436 9.78211 9.00534L9.92498 7.01045ZM7.39935 7.37351C6.59324 7.67421 5.86123 8.14476 5.25296 8.75325L6.66743 10.1672C7.07294 9.76155 7.56095 9.44785 8.09836 9.24738L7.39935 7.37351ZM5.25309 8.75312L2.25309 11.7531L3.66731 13.1673L6.66731 10.1673L5.25309 8.75312ZM2.24091 11.7655C1.14796 12.8971 0.543197 14.4127 0.556867 15.9859L2.55679 15.9685C2.54768 14.9198 2.95086 13.9093 3.67949 13.1549L2.24091 11.7655ZM0.556867 15.9859C0.570538 17.5591 1.20155 19.064 2.314 20.1764L3.72821 18.7622C2.98658 18.0206 2.56591 17.0173 2.55679 15.9685L0.556867 15.9859ZM2.314 20.1764C3.42645 21.2889 4.93132 21.9199 6.5045 21.9336L6.52188 19.9336C5.4731 19.9245 4.46985 19.5038 3.72821 18.7622L2.314 20.1764ZM6.5045 21.9336C8.07768 21.9472 9.5933 21.3425 10.7249 20.2495L9.33549 18.8109C8.58108 19.5396 7.57067 19.9427 6.52188 19.9336L6.5045 21.9336ZM10.7373 20.2373L12.4473 18.5273L11.0331 17.1131L9.32309 18.8231L10.7373 20.2373Z" fill="#1A1A1A"/>
</svg>
