<svg width="64" height="40" viewBox="0 0 64 40" fill="none" xmlns="http://www.w3.org/2000/svg">
<path fill-rule="evenodd" clip-rule="evenodd" d="M37.2524 6.81938V30.1498C37.2524 30.6784 37.3423 31.0308 37.5222 31.2599C37.6301 31.4009 37.7201 31.4714 37.792 31.5066C37.882 31.5419 38.1518 31.63 38.6374 31.7533C39.231 31.8943 39.5188 32.2643 39.5188 32.8458C39.5188 33.1982 39.3569 33.4626 39.0332 33.674C38.7993 33.8326 38.4036 33.9031 37.864 33.9031H37.2524H29.032H28.4205C27.8808 33.9031 27.4851 33.815 27.1973 33.6388C26.9275 33.4626 26.7836 33.1982 26.7836 32.8458C26.7836 32.2643 27.0714 31.8943 27.665 31.7533C28.1506 31.6123 28.4205 31.5419 28.5104 31.5066C28.6003 31.4714 28.6723 31.3833 28.7622 31.2599C28.9421 31.0308 29.032 30.6784 29.032 30.1498V15.8414H28.9961V2.22026H15.973V0H50.8151V2.22026H37.2524V6.81938ZM14.0124 8.42291V30.3612C14.0124 30.8546 14.1023 31.1894 14.2822 31.4009C14.3901 31.5242 14.4621 31.6123 14.552 31.63C14.6419 31.6652 14.9117 31.7357 15.3974 31.859C15.991 32 16.2788 32.3348 16.2788 32.8811C16.2788 33.1982 16.1169 33.4626 15.7931 33.674C15.5593 33.815 15.1636 33.9031 14.6239 33.9031H13.9944H5.81001H5.32434C4.89264 33.9031 4.53288 33.815 4.29904 33.6564C4.06521 33.4978 3.93929 33.2511 3.93929 32.9339C3.93929 32.4229 4.19112 32.0881 4.67678 31.9119C5.0905 31.7709 5.32434 31.7004 5.3783 31.6652C5.45025 31.63 5.5222 31.5595 5.59415 31.4537C5.73806 31.2599 5.81001 30.9427 5.81001 30.5022V11.8238C5.81001 11.3833 5.73806 11.0661 5.59415 10.8722C5.5222 10.7665 5.45025 10.696 5.3783 10.6608C5.30635 10.6256 5.07251 10.5551 4.67678 10.4141C4.19112 10.2555 3.93929 9.90308 3.93929 9.40969C3.93929 9.11013 4.06521 8.86344 4.29904 8.68723C4.53288 8.51101 4.89264 8.44053 5.32434 8.44053H5.81001H14.0124V8.42291ZM16.0809 24.1586V22.1498C16.6026 22.0264 16.9803 21.8855 17.1962 21.7621C17.412 21.6211 17.5919 21.4097 17.7538 21.1278C18.0056 20.6344 18.1315 19.9824 18.1315 19.1718V13.1982C18.1315 12.6167 18.0956 12.1762 18.0056 11.8943C17.9157 11.6123 17.7538 11.348 17.484 11.1013C17.1242 10.7489 16.6565 10.5374 16.045 10.4493V8.44053C18.5632 8.44053 20.434 8.68722 21.6391 9.163C23.0242 9.72687 24.1214 10.5903 24.9309 11.7533C25.7583 12.9339 26.172 14.3789 26.172 16.1057C26.172 18.0264 25.7583 19.5947 24.9129 20.8106C24.0854 22.0264 22.9162 22.9075 21.4053 23.489C20.2001 23.9295 18.4193 24.1586 16.0809 24.1586ZM0.017988 40H4.44295H14.0304V37.815H4.85666C4.28106 37.4802 3.83137 37.0749 3.50759 36.5639C2.98595 35.7533 2.62619 34.7841 2.44632 33.6564L2.26644 32.5639C2.19449 32.2115 2.06858 31.9471 1.87071 31.7357C1.65486 31.5418 1.40304 31.4361 1.09725 31.4361C0.773468 31.4361 0.521641 31.5419 0.30579 31.7533C0.107926 31.9648 0 32.2467 0 32.5991V40H0.017988ZM64 40V32.6167C64 32.2643 63.8921 31.9824 63.6942 31.7709C63.4784 31.5595 63.2085 31.4361 62.8848 31.4361C62.561 31.4361 62.3092 31.5418 62.0933 31.7357C61.8775 31.9471 61.7515 32.2115 61.6796 32.5639L61.4997 33.6564C61.3198 34.7841 60.9421 35.7357 60.4025 36.5639C60.0607 37.0749 59.593 37.4802 59.0174 37.815H52.7757V40H59.0174H64ZM15.973 40H50.869V37.815H15.973V40ZM0.0359752 0H4.10118H14.0304V2.22026H4.82069C4.28106 2.53745 3.84935 2.94273 3.54356 3.4185C3.02192 4.2467 2.66217 5.21586 2.46431 6.32599L2.28443 7.4185C2.23047 7.77093 2.08657 8.03524 1.8887 8.2467C1.69084 8.45815 1.43901 8.54626 1.13322 8.54626C0.809444 8.54626 0.557617 8.44053 0.341765 8.21145C0.143901 8 0.0359752 7.71806 0.0359752 7.36564V0ZM64 0V7.38326C64 7.73568 63.8921 8.01762 63.6942 8.22908C63.4784 8.44053 63.2265 8.54626 62.9028 8.54626C62.597 8.54626 62.3451 8.44053 62.1293 8.2467C61.9314 8.03524 61.7875 7.77093 61.7336 7.4185L61.5537 6.32599C61.3738 5.19824 61.014 4.22908 60.4924 3.4185C60.1686 2.92511 59.7369 2.51982 59.1973 2.20264H52.7757V0H59.8628H64ZM52.7937 10.3789V8.3348C53.5312 8.37004 54.1788 8.56388 54.7184 8.68723C55.258 8.82819 56.0315 9.09251 57.0208 9.4978C57.2726 9.5859 57.4705 9.63877 57.6324 9.63877C57.8662 9.63877 58.0281 9.55066 58.154 9.40969L58.5497 8.88106C58.7476 8.61674 58.9814 8.47577 59.2692 8.47577C59.593 8.47577 59.8449 8.59912 59.9888 8.82819C60.1506 9.05727 60.2226 9.42731 60.2226 9.9207V15.8238C60.2226 16.1762 60.1147 16.4581 59.9168 16.6696C59.701 16.8987 59.4491 17.0044 59.1254 17.0044C58.8735 17.0044 58.6577 16.9163 58.4418 16.7753C58.3339 16.6696 58.244 16.5639 58.172 16.4229C58.1001 16.2819 58.0461 16.0529 57.9741 15.7357C57.8482 15.1542 57.6144 14.5551 57.2726 13.9383C56.9309 13.3216 56.5531 12.7577 56.1034 12.2643C55.24 11.3304 54.1248 10.696 52.7937 10.3789ZM50.7971 8.3348L50.923 10.3965C50.1675 10.6079 49.6099 10.9075 49.2322 11.348C48.8544 11.7709 48.6925 12.2819 48.7285 12.9163C48.7645 13.5154 48.9623 14.0441 49.3221 14.4846C49.6818 14.9427 50.2575 15.3656 51.0309 15.7709C51.5705 16.0529 52.7757 16.5639 54.6464 17.3392C55.7797 17.7974 56.661 18.2203 57.2906 18.6079C57.9202 18.9956 58.5318 19.4537 59.1074 20.0176C60.6543 21.4978 61.4817 23.2599 61.6256 25.304C61.7156 26.837 61.4098 28.2643 60.7083 29.533C60.0067 30.8018 58.9814 31.8062 57.6504 32.5463C56.9309 32.9339 56.1394 33.2335 55.276 33.4449C54.4126 33.674 53.5312 33.7974 52.7757 33.7974V31.7181C53.837 31.4714 54.5205 31.1366 54.9702 30.696C55.4199 30.2379 55.6178 29.6388 55.5638 28.8811C55.5098 28.0881 55.0961 27.3833 54.3227 26.7665C53.801 26.3612 52.8477 25.8855 51.4267 25.2863C49.8797 24.652 48.8004 24.1938 48.2248 23.9119C47.6492 23.63 47.0916 23.3128 46.552 22.9427C44.1417 21.3392 42.8465 19.207 42.6847 16.5463C42.5947 15.1894 42.8106 13.9383 43.3142 12.7753C43.8179 11.63 44.5554 10.696 45.5447 9.99119C46.9297 8.96916 48.6925 8.44053 50.7971 8.3348ZM50.8331 31.7004V33.7445C49.8257 33.7445 48.7465 33.4626 47.5413 32.8987C47.0736 32.7048 46.7679 32.5639 46.606 32.511C46.4441 32.4582 46.2642 32.4229 46.1023 32.4229C45.8505 32.4229 45.6706 32.4582 45.5447 32.5463C45.4188 32.6344 45.2209 32.8282 44.9511 33.1278C44.7352 33.3921 44.4834 33.533 44.2316 33.533C43.5481 33.533 43.2063 33.022 43.2063 32V25.4802C43.2063 25.1454 43.3142 24.8634 43.4941 24.6167C43.692 24.3877 43.9258 24.2643 44.2316 24.2467C44.5014 24.2291 44.7173 24.2996 44.8612 24.4758C45.023 24.6344 45.149 24.9163 45.2569 25.3216C45.5447 26.3436 45.9584 27.3128 46.48 28.2115C47.0197 29.1101 47.6313 29.8678 48.3508 30.4846C49.0883 31.1013 49.8977 31.5242 50.8331 31.7004Z" fill="#EC672A"/>
</svg>
