<svg width="22" height="22" viewBox="0 0 22 22" fill="none" xmlns="http://www.w3.org/2000/svg">
<path d="M21.0004 15.9196V18.9196C21.0016 19.1981 20.9445 19.4738 20.8329 19.729C20.7214 19.9841 20.5577 20.2132 20.3525 20.4015C20.1473 20.5897 19.905 20.7331 19.6412 20.8223C19.3773 20.9115 19.0978 20.9447 18.8204 20.9196C15.7433 20.5852 12.7874 19.5338 10.1904 17.8496C7.77425 16.3143 5.72576 14.2658 4.19042 11.8496C2.5004 9.24081 1.44866 6.2706 1.12042 3.17961C1.09543 2.90308 1.1283 2.62437 1.21692 2.36123C1.30555 2.0981 1.44799 1.8563 1.63519 1.65123C1.82238 1.44616 2.05023 1.28232 2.30421 1.17013C2.5582 1.05794 2.83276 0.99987 3.11042 0.999609H6.11042C6.59573 0.994832 7.06621 1.16669 7.43418 1.48314C7.80215 1.7996 8.0425 2.23906 8.11042 2.71961C8.23704 3.67967 8.47187 4.62234 8.81042 5.52961C8.94497 5.88753 8.97408 6.27652 8.89433 6.65049C8.81457 7.02445 8.62928 7.36772 8.36042 7.63961L7.09042 8.90961C8.51398 11.4132 10.5869 13.4861 13.0904 14.9096L14.3604 13.6396C14.6323 13.3707 14.9756 13.1855 15.3495 13.1057C15.7235 13.0259 16.1125 13.0551 16.4704 13.1896C17.3777 13.5282 18.3204 13.763 19.2804 13.8896C19.7662 13.9581 20.2098 14.2028 20.527 14.5771C20.8441 14.9514 21.0126 15.4292 21.0004 15.9196Z" stroke="#BFBFBF" stroke-width="2" stroke-linecap="square"/>
</svg>
